<?xml version="1.0" encoding="UTF-8"?>
<svg width="23px" height="24px" viewBox="0 0 23 24" version="1.1" xmlns="http://www.w3.org/2000/svg" xmlns:xlink="http://www.w3.org/1999/xlink">
    <!-- Generator: Sketch 48.2 (47327) - http://www.bohemiancoding.com/sketch -->
    <title>check referral icon</title>
    <desc>Created with Sketch.</desc>
    <defs></defs>
    <g id="manage-plans__monthly" stroke="none" stroke-width="1" fill="none" fill-rule="evenodd" transform="translate(-29.000000, -393.000000)">
        <g id="parentNav" transform="translate(0.000000, 64.000000)" fill="#FFFFFF" fill-rule="nonzero">
            <g id="nav" transform="translate(0.000000, 8.000000)">
                <g id="nav-item-copy-2" transform="translate(0.000000, 314.000000)">
                    <g id="check-referral-icon" transform="translate(29.000000, 7.000000)">
                        <path d="M9.9388125,10.5 C12.832875,10.5 15.1873125,8.145375 15.1873125,5.251125 C15.1873125,2.3555625 12.8326875,0 9.9388125,0 C7.0430625,0 4.6873125,2.3555625 4.6873125,5.251125 C4.6873125,8.145375 7.0430625,10.5 9.9388125,10.5 Z M9.9388125,1.5 C12.0058125,1.5 13.6873125,3.1828125 13.6873125,5.251125 C13.6873125,7.3183125 12.005625,9 9.9388125,9 C7.8705,9 6.1873125,7.3183125 6.1873125,5.251125 C6.1873125,3.1828125 7.8705,1.5 9.9388125,1.5 Z" id="Shape"></path>
                        <path d="M16.9629375,22.4998125 L2.1624375,22.4998125 C1.9951875,22.4998125 1.8346875,22.4270625 1.710375,22.294875 C1.5744375,22.1505 1.4998125,21.9571875 1.5,21.751875 C1.5,21.751875 1.5046875,20.0769375 1.5073125,19.7994375 L1.50525,19.723125 C1.5076875,19.670625 1.5110625,19.61025 1.5121875,19.5928125 C1.69125,17.428125 3.75675,15.494625 6.774375,14.6671875 C7.785375,14.39025 8.849625,14.25 9.9373125,14.25 C11.025,14.25 12.08925,14.39025 13.1008125,14.6668125 C13.5005625,14.7763125 13.9126875,14.540625 14.022,14.1410625 C14.1313125,13.7415 13.8958125,13.3291875 13.49625,13.219875 C12.355875,12.9080625 11.1585,12.75 9.9373125,12.75 C8.71575,12.75 7.518375,12.90825 6.378,13.2204375 C2.7455625,14.216625 0.2488125,16.6693125 0.01725,19.4715 C0.014625,19.5050625 0.0045,19.69725 0.0028125,19.76025 L0.0045,19.903125 L0.0065625,19.9093125 C0.00375,20.3866875 -4.54083563e-16,21.74775 -4.54083563e-16,21.7490625 C-0.0005625,22.3400625 0.219,22.899375 0.618375,23.3233125 C1.0291875,23.759625 1.577625,23.9998125 2.1624375,23.9998125 L16.9629375,23.9998125 C17.377125,23.9998125 17.7129375,23.664 17.7129375,23.2498125 C17.7129375,22.835625 17.377125,22.4998125 16.9629375,22.4998125 Z" id="Shape"></path>
                        <g id="checkmark" transform="translate(10.000000, 8.000000)">
                            <polygon id="Shape" points="3.81040259 10.8115194 1.35183216 8.35297555 0 9.70480774 3.8404244 13.5377334 13 4.37810455 11.6219486 3"></polygon>
                        </g>
                    </g>
                </g>
            </g>
        </g>
    </g>
</svg>