<?xml version="1.0" encoding="UTF-8"?>
<svg width="32px" height="32px" viewBox="0 0 32 32" version="1.1" xmlns="http://www.w3.org/2000/svg" xmlns:xlink="http://www.w3.org/1999/xlink">
    <!-- Generator: Sketch 45.2 (43514) - http://www.bohemiancoding.com/sketch -->
    <title>Shape Copy</title>
    <desc>Created with Sketch.</desc>
    <defs></defs>
    <g id="parent-settings" stroke="none" stroke-width="1" fill="none" fill-rule="evenodd">
        <g id="manage-plans__monthly" transform="translate(-1424.000000, -16.000000)" fill-rule="nonzero" fill="#A061FF">
            <g id="page-header">
                <path d="M1440,16 C1431.17774,16 1424,23.1777391 1424,32 C1424,40.8222609 1431.17774,48 1440,48 C1448.82226,48 1456,40.8222609 1456,32 C1456,23.1777391 1448.82226,16 1440,16 Z M1444.12661,38.642087 C1444.17391,38.7366957 1444.20174,38.8438261 1444.20174,38.9565217 C1444.20174,39.3405217 1443.89009,39.6521739 1443.50609,39.6521739 L1436.52174,39.6521739 C1436.31443,39.6521739 1436.11826,39.5603478 1435.98609,39.4003478 C1435.85391,39.2403478 1435.79965,39.0302609 1435.83861,38.8271304 L1436.93774,32.9850435 C1435.79826,32.064 1435.13043,30.6866087 1435.13043,29.2173913 C1435.13043,26.5321739 1437.31478,24.3478261 1440,24.3478261 C1442.68522,24.3478261 1444.86957,26.5321739 1444.86957,29.2173913 C1444.86957,30.6866087 1444.20174,32.064 1443.06226,32.9864348 L1444.12661,38.642087 Z" id="Shape-Copy"></path>
            </g>
        </g>
    </g>
</svg>