<svg width="24" height="24" viewBox="0 0 24 24" xmlns="http://www.w3.org/2000/svg"><title>Artboard 2</title><defs><linearGradient x1="0%" y1="0%" x2="98.894%" y2="98.894%" id="a"><stop stop-color="#00B4F1" offset="0%"/><stop stop-color="#0055B3" offset="100%"/></linearGradient></defs><g fill="none" fill-rule="evenodd"><path fill="url(#a)" d="M0 0h24v24H0z"/><path d="M12 14.575c-2.63 0-4.765-2.59-4.765-5.787S7.935 3 12 3c4.065 0 4.765 2.59 4.765 5.788 0 3.196-2.133 5.787-4.765 5.787zm8.99 8.604c.006.355.01.417.01.385v.355H3v-.507c0 .05.005.028.014-.415.1-5.422.873-6.985 6.377-7.978 0 0 .784.998 2.61.998 1.826 0 2.61-.998 2.61-.998 5.564 1.004 6.292 2.59 6.38 8.16z" fill="#F4F4F4" fill-rule="nonzero"/></g></svg>