<svg className="a-glyph" width="33" height="40" viewBox="0 0 33 40" xmlns="http://www.w3.org/2000/svg">
  <path d="M31.985 18.977c-.53-.53-1.174-.795-1.932-.795h-.91v-5.455c0-3.485-1.248-6.477-3.748-8.977S19.903 0 16.418 0C12.933 0 9.94 1.25 7.44 3.75s-3.75 5.492-3.75 8.977v5.455h-.908c-.758 0-1.402.265-1.932.795S.055 20.15.055 20.91v16.363c0 .757.265 1.4.795 1.932.53.53 1.174.795 1.932.795h27.272c.758 0 1.4-.265 1.932-.795.53-.53.795-1.175.795-1.932V20.91c.004-.758-.262-1.402-.793-1.933zm-8.295-.795H9.145v-5.455c0-2.007.71-3.722 2.13-5.142 1.422-1.42 3.135-2.13 5.143-2.13s3.72.71 5.142 2.13c1.42 1.42 2.13 3.135 2.13 5.142v5.455z" fill="#FFF"/>
</svg>
