<?xml version="1.0" encoding="UTF-8"?>
<svg width="16px" height="16px" viewBox="0 0 16 16" version="1.1" xmlns="http://www.w3.org/2000/svg" xmlns:xlink="http://www.w3.org/1999/xlink">
    <!-- Generator: Sketch 44 (41411) - http://www.bohemiancoding.com/sketch -->
    <title>Shape</title>
    <desc>Created with Sketch.</desc>
    <defs></defs>
    <g id="worksheet-ui" stroke="none" stroke-width="1" fill="none" fill-rule="evenodd">
        <g transform="translate(-125.000000, -888.000000)" id="page-footer" fill-rule="nonzero" fill="#FED864">
            <g transform="translate(0.000000, 872.000000)">
                <g id="tally-bar" transform="translate(16.000000, 16.000000)">
                    <g id="points" transform="translate(109.000000, 0.000000)">
                        <path d="M7.44546901,0.345179579 C7.55005842,0.133929677 7.76545048,0 8.00086295,0 C8.23627542,0 8.45201266,0.133929677 8.55625689,0.345179579 L10.5482882,4.38205476 C10.6383801,4.56465476 10.813041,4.69133566 11.014971,4.72067593 L15.4698587,5.36788764 C15.7035453,5.40171523 15.8968458,5.56533036 15.9696787,5.7893519 C16.0425116,6.01337345 15.98176,6.25983167 15.8129672,6.42413715 L12.5896803,9.56665204 C12.4436693,9.70886602 12.3770497,9.91390269 12.4112224,10.1147972 L13.1719982,14.5520807 C13.2113487,14.7847317 13.1164243,15.0194538 12.9251948,15.158216 C12.7343105,15.2962879 12.4819842,15.3145824 12.2728054,15.2055056 L8.28805236,13.1102656 C8.10786862,13.0153412 7.89213138,13.0153412 7.71160246,13.1102656 L3.7268494,15.2051605 C3.51836093,15.3145824 3.2653443,15.2966331 3.07445999,15.158216 C2.88357569,15.019799 2.78830612,14.7847317 2.82800178,14.5520807 L3.58877757,10.1147972 C3.62329553,9.91390269 3.55633069,9.70886602 3.41031973,9.56665204 L0.187032815,6.42413715 C0.0182400006,6.25948649 -0.0425116053,6.01337345 0.0303212859,5.7893519 C0.103154177,5.56533036 0.296799921,5.40171523 0.530486496,5.36788764 L4.9860645,4.72067593 C5.18764938,4.69133566 5.36231025,4.56465476 5.45240212,4.38170958 L7.44546901,0.345179579 Z" id="Shape"></path>
                    </g>
                </g>
            </g>
        </g>
    </g>
</svg>