<svg width="88" height="102" viewBox="0 0 88 102" xmlns="http://www.w3.org/2000/svg"><title>user-profile</title><path d="M44 56.59c-12.865 0-23.295-12.667-23.295-28.294C20.705 12.668 24.13 0 44 0c19.873 0 23.297 12.668 23.297 28.296 0 15.627-10.43 28.295-23.296 28.295zm43.95 42.063c.028 1.74.043 2.042.05 1.887l-.002 1.734H.004s-.002-2.008-.004-2.48c.007.252.026.14.067-2.026.496-26.507 4.267-34.15 31.177-39.006 0 0 3.83 4.88 12.757 4.88s12.757-4.88 12.757-4.88c27.207 4.91 30.762 12.668 31.194 39.89z" fill-rule="nonzero" fill="#F4F4F4"/></svg>